<svg width="24" height="24" viewBox="0 0 24 24" fill="none" xmlns="http://www.w3.org/2000/svg">
<path fill-rule="evenodd" clip-rule="evenodd" d="M19.7672 8.00571L19.2073 6.99429C18.7336 6.13846 17.6839 5.84323 16.8607 6.33429C16.4688 6.5746 16.0012 6.64278 15.561 6.52379C15.1208 6.4048 14.7441 6.10842 14.514 5.7C14.366 5.4404 14.2865 5.14472 14.2835 4.84286C14.2968 4.35889 14.1215 3.88991 13.7973 3.54275C13.4731 3.19558 13.0277 2.9998 12.5626 3H11.4346C10.979 2.99999 10.5421 3.18901 10.2207 3.52521C9.89928 3.86142 9.71981 4.3171 9.722 4.79143C9.70849 5.77075 8.94198 6.55724 8.00114 6.55714C7.71117 6.55401 7.42714 6.47122 7.17777 6.31714C6.35454 5.82608 5.30482 6.12132 4.83115 6.97714L4.23009 8.00571C3.75699 8.86047 4.03673 9.95254 4.85585 10.4486C5.38829 10.7686 5.71629 11.36 5.71629 12C5.71629 12.64 5.38829 13.2314 4.85585 13.5514C4.03777 14.0441 3.75772 15.1335 4.23009 15.9857L4.79821 17.0057C5.02015 17.4226 5.39252 17.7302 5.83292 17.8605C6.27333 17.9908 6.74546 17.9331 7.14483 17.7C7.53744 17.4615 8.0053 17.3962 8.44441 17.5185C8.88352 17.6408 9.2575 17.9407 9.48322 18.3514C9.63122 18.611 9.71075 18.9067 9.71376 19.2086C9.71376 20.198 10.4842 21 11.4346 21H12.5626C13.5098 21 14.279 20.2032 14.2835 19.2171C14.2813 18.7413 14.4619 18.2843 14.7851 17.9479C15.1083 17.6114 15.5473 17.4234 16.0043 17.4257C16.2936 17.4338 16.5765 17.5162 16.8277 17.6657C17.6488 18.1582 18.6979 17.867 19.1743 17.0143L19.7672 15.9857C19.9966 15.5757 20.0596 15.0874 19.9422 14.6288C19.8247 14.1703 19.5365 13.7795 19.1414 13.5429C18.7463 13.3062 18.4581 12.9154 18.3406 12.4569C18.2232 11.9984 18.2862 11.51 18.5156 11.1C18.6649 10.8288 18.8809 10.6039 19.1414 10.4486C19.9556 9.95281 20.2347 8.86712 19.7672 8.01429V8.00571Z" fill="#FF7B00"/>
<path fill-rule="evenodd" clip-rule="evenodd" d="M12.5627 2C13.3115 1.9998 14.0195 2.31544 14.5282 2.86025C15.0301 3.3977 15.2977 4.11337 15.2838 4.84597C15.2872 4.97465 15.3222 5.09825 15.3829 5.20471L15.3854 5.20921C15.488 5.39134 15.6486 5.51158 15.822 5.55843C15.9941 5.60497 16.1785 5.57959 16.338 5.48182C16.3415 5.47968 16.3449 5.47756 16.3485 5.47547C17.674 4.6848 19.3447 5.17751 20.0823 6.50997C20.0822 6.50995 20.0823 6.50999 20.0823 6.50997L20.6422 7.5214C20.6604 7.55445 20.6768 7.58841 20.6912 7.62311C21.3409 8.91546 20.9182 10.5375 19.6616 11.3027C19.6589 11.3043 19.6563 11.3059 19.6536 11.3075C19.549 11.3698 19.4573 11.4632 19.3919 11.5821L19.3884 11.5884C19.2853 11.7725 19.2552 11.9969 19.3095 12.2087C19.3635 12.4199 19.4931 12.5878 19.6553 12.6849C20.2834 13.0611 20.7302 13.6748 20.911 14.3807C21.0916 15.0859 20.9958 15.8382 20.6399 16.4741C20.6378 16.4778 20.6358 16.4814 20.6337 16.4851L20.0437 17.5086C19.3002 18.831 17.6348 19.3144 16.3154 18.5244C16.2129 18.4637 16.1008 18.4308 15.9881 18.4257C15.815 18.4279 15.6413 18.5002 15.5063 18.6406C15.3671 18.7856 15.2825 18.9908 15.2836 19.2125C15.2836 19.2156 15.2836 19.2187 15.2836 19.2217C15.2767 20.7203 14.0976 22 12.5627 22H11.4347C9.89673 22 8.71724 20.7157 8.71386 19.2151C8.71195 19.0829 8.67678 18.9558 8.61457 18.8467C8.61199 18.8422 8.60944 18.8376 8.60692 18.833C8.5067 18.6507 8.34792 18.5297 8.17614 18.4818C8.00561 18.4343 7.82256 18.4584 7.66408 18.5547C7.65906 18.5577 7.65401 18.5607 7.64893 18.5637C7.01319 18.9347 6.25621 19.0286 5.5493 18.8194C4.84707 18.6117 4.26515 18.1264 3.92056 17.4849L3.35655 16.4723L3.35555 16.4705C2.63095 15.1633 3.04553 13.4744 4.34003 12.6948L4.3408 12.6943C4.5614 12.5617 4.71637 12.302 4.71637 12C4.71637 11.698 4.5614 11.4383 4.3408 11.3057L4.33794 11.304C3.04424 10.5205 2.6307 8.8305 3.35525 7.52145C3.35901 7.51465 3.36286 7.50789 3.36678 7.50118L3.96259 6.4816C4.70327 5.15761 6.36835 4.66988 7.69014 5.45833C7.6946 5.46099 7.69905 5.46369 7.70347 5.46642C7.79818 5.52494 7.90258 5.55504 8.00674 5.55712C8.36041 5.55407 8.71239 5.24808 8.72206 4.78426C8.72171 4.06078 8.99635 3.35887 9.49795 2.83419C10.0036 2.30527 10.6997 1.99999 11.4347 2M12.5627 2C12.5627 2 12.5626 2 12.5625 2H12.5627ZM12.5625 2C12.5625 2 12.5624 2 12.5623 2L12.5625 2ZM12.5623 2L11.4347 2L12.5623 2ZM13.0665 4.22525C12.9269 4.07583 12.7444 3.99992 12.5632 4L11.4347 4C11.2584 4 11.0808 4.07275 10.9436 4.21624C10.8051 4.36112 10.7211 4.5658 10.7221 4.78681C10.7221 4.79295 10.7221 4.79908 10.722 4.80522C10.7015 6.29396 9.52564 7.55731 8.00112 7.55714C7.99876 7.55714 7.9964 7.55713 7.99404 7.55712C7.99283 7.55711 7.99162 7.5571 7.99042 7.55708C7.51986 7.552 7.06142 7.41848 6.66107 7.1733C6.34065 6.98544 5.91503 7.08402 5.70617 7.46139C5.7024 7.4682 5.69855 7.47496 5.69463 7.48168L5.10057 8.49826C4.88566 8.89686 5.03151 9.38511 5.373 9.59263C6.21612 10.1003 6.71637 11.0227 6.71637 12C6.71637 12.9777 6.21566 13.9005 5.37185 14.4081C5.03038 14.6137 4.88483 15.1032 5.10442 15.5002C5.10455 15.5005 5.10467 15.5007 5.10479 15.5009L5.67193 16.5191C5.67501 16.5246 5.67803 16.5302 5.68101 16.5358C5.78092 16.7235 5.94152 16.8498 6.11672 16.9016C6.28878 16.9525 6.47395 16.9319 6.63574 16.8393C7.26049 16.4635 8.00892 16.3591 8.71286 16.5552C9.41678 16.7513 10.0043 17.2273 10.3559 17.863C10.5867 18.2704 10.7091 18.7309 10.7138 19.1986C10.7138 19.2019 10.7138 19.2052 10.7138 19.2086C10.7138 19.6839 11.0741 20 11.4347 20H12.5627C12.9214 20 13.2797 19.6875 13.2836 19.2159C13.2817 18.488 13.5582 17.7817 14.064 17.2551C14.5725 16.7257 15.2721 16.422 16.0095 16.4257C16.0171 16.4258 16.0247 16.4259 16.0323 16.4261C16.4939 16.439 16.9429 16.5706 17.3392 16.8063L17.3422 16.8082C17.6625 17.0003 18.0906 16.9039 18.3015 16.5265C18.3036 16.5226 18.3058 16.5188 18.308 16.5149L18.8971 15.4929C18.9981 15.3096 19.0274 15.0871 18.9735 14.877C18.9194 14.6658 18.7899 14.4979 18.6277 14.4008C17.9996 14.0246 17.5528 13.4109 17.372 12.705C17.1917 12.001 17.2869 11.2501 17.6413 10.6149C17.8733 10.1944 18.2111 9.84036 18.6241 9.59279C18.9648 9.38327 19.1089 8.89356 18.8904 8.495C18.8764 8.4695 18.8636 8.44345 18.8519 8.41694L18.3325 7.4786C18.1234 7.10085 17.6971 7.00239 17.3766 7.19101C16.7536 7.57043 16.0058 7.67988 15.3001 7.48915C14.5939 7.29826 14.0018 6.82663 13.6441 6.19306C13.4117 5.78448 13.2883 5.32233 13.2836 4.85283C13.2835 4.84031 13.2836 4.82779 13.284 4.81528C13.2902 4.58846 13.2074 4.37614 13.0665 4.22525Z" fill="#FF7B00"/>
<path d="M15 12C15 13.6569 13.6569 15 12 15C10.3431 15 9 13.6569 9 12C9 10.3431 10.3431 9 12 9C13.6569 9 15 10.3431 15 12Z" fill="#FF7B00"/>
<path fill-rule="evenodd" clip-rule="evenodd" d="M16.5 12C16.5 14.4853 14.4853 16.5 12 16.5C9.51472 16.5 7.5 14.4853 7.5 12C7.5 9.51472 9.51472 7.5 12 7.5C14.4853 7.5 16.5 9.51472 16.5 12ZM12 15C13.6569 15 15 13.6569 15 12C15 10.3431 13.6569 9 12 9C10.3431 9 9 10.3431 9 12C9 13.6569 10.3431 15 12 15Z" fill="white"/>
</svg>
