<svg width="24" height="24" viewBox="0 0 24 24" fill="none" xmlns="http://www.w3.org/2000/svg">
<path fill-rule="evenodd" clip-rule="evenodd" d="M12.3482 4.25834C12.1636 4.09964 11.8396 4.09771 11.6498 4.25999L11.6341 4.27343L5.38217 9.18578C5.14088 9.37537 5 9.66524 5 9.9721V19L9 19V14.7545C9 13.7855 9.7855 13 10.7545 13H13.2455C14.2145 13 15 13.7855 15 14.7545V19L19 19V9.9721C19 9.66524 18.8591 9.37537 18.6178 9.18579L12.3649 4.27266L12.3482 4.25834ZM13.6329 2.72543C12.7011 1.94092 11.2969 1.94582 10.368 2.72469L4.1465 7.61316C3.42265 8.18192 3 9.05153 3 9.9721V19C3 20.1046 3.89543 21 5 21L9.98 21C10.5433 21 11 20.5433 11 19.98V15.2C11 15.0896 11.0895 15 11.2 15H12.8C12.9105 15 13 15.0896 13 15.2V19.98C13 20.5433 13.4567 21 14.02 21H19C20.1046 21 21 20.1046 21 19V9.9721C21 9.05153 20.5773 8.18192 19.8535 7.61316L13.6329 2.72543Z" fill="#666666"/>
</svg>
