<svg width="24" height="24" viewBox="0 0 24 24" fill="none" xmlns="http://www.w3.org/2000/svg">
<path fill-rule="evenodd" clip-rule="evenodd" d="M12 10C10.8954 10 10 10.8954 10 12C10 13.1046 10.8954 14 12 14C13.1046 14 14 13.1046 14 12C14 10.8954 13.1046 10 12 10ZM8 12C8 9.79086 9.79086 8 12 8C14.2091 8 16 9.79086 16 12C16 14.2091 14.2091 16 12 16C9.79086 16 8 14.2091 8 12Z" fill="#666666"/>
<path fill-rule="evenodd" clip-rule="evenodd" d="M12.5622 2C13.311 1.9998 14.019 2.31544 14.5278 2.86025C15.0296 3.3977 15.2972 4.11338 15.2833 4.84597C15.2867 4.97465 15.3217 5.09825 15.3824 5.20471C15.3832 5.20621 15.3841 5.20771 15.3849 5.20921C15.4875 5.39134 15.6482 5.51158 15.8215 5.55843C15.9937 5.60497 16.178 5.57959 16.3375 5.48182C16.341 5.47968 16.3445 5.47756 16.348 5.47547C17.6735 4.68478 19.3443 5.17753 20.0818 6.51004L20.6417 7.5214C20.66 7.55445 20.6763 7.58842 20.6907 7.62313C21.3404 8.91548 20.9177 10.5375 19.6611 11.3027C19.6584 11.3043 19.6558 11.3059 19.6531 11.3075C19.5485 11.3698 19.4568 11.4632 19.3914 11.5821C19.3902 11.5842 19.3891 11.5863 19.3879 11.5884C19.2848 11.7725 19.2547 11.9969 19.309 12.2087C19.3631 12.4199 19.4926 12.5878 19.6548 12.6849C20.2829 13.0611 20.7297 13.6748 20.9105 14.3807C21.0911 15.0859 20.9953 15.8382 20.6394 16.4741C20.6374 16.4778 20.6353 16.4814 20.6332 16.4851L20.0433 17.5085C19.2998 18.831 17.6344 19.3144 16.315 18.5245C16.2125 18.4637 16.1003 18.4308 15.9876 18.4257C15.8145 18.4279 15.6408 18.5002 15.5059 18.6406C15.3666 18.7856 15.2821 18.9908 15.2831 19.2125C15.2831 19.2156 15.2831 19.2187 15.2831 19.2217C15.2762 20.7203 14.0972 22 12.5622 22H11.4342C9.89625 22 8.71676 20.7157 8.71337 19.2151C8.71146 19.0829 8.67629 18.9558 8.61409 18.8467C8.6115 18.8422 8.60895 18.8376 8.60643 18.833C8.50621 18.6507 8.34743 18.5297 8.17565 18.4818C8.00512 18.4343 7.82207 18.4584 7.66359 18.5547C7.65857 18.5577 7.65352 18.5607 7.64844 18.5637C7.0127 18.9347 6.25572 19.0286 5.54881 18.8194C4.84659 18.6117 4.26468 18.1264 3.92008 17.4849L3.35506 16.4705C2.63046 15.1633 3.04504 13.4744 4.33954 12.6948C4.56014 12.5622 4.71589 12.302 4.71589 12C4.71589 11.698 4.56091 11.4383 4.34031 11.3057C4.33936 11.3051 4.33841 11.3045 4.33746 11.304C3.04375 10.5205 2.63021 8.8305 3.35476 7.52145C3.35853 7.51465 3.36237 7.50789 3.36629 7.50118L3.9621 6.4816C4.70278 5.15761 6.36786 4.66988 7.68965 5.45833C7.69412 5.46099 7.69856 5.46369 7.70298 5.46642C7.79769 5.52494 7.90209 5.55504 8.00625 5.55712C8.35992 5.55407 8.7119 5.24808 8.72158 4.78425C8.72122 4.06078 8.99586 3.35887 9.49746 2.83419C10.0031 2.30527 10.6992 1.99999 11.4342 2H12.5622C12.5624 2 12.5621 2 12.5622 2ZM13.066 4.22525C12.9265 4.07583 12.7439 3.99992 12.5627 4H11.4342C11.2579 4 11.0803 4.07275 10.9431 4.21624C10.8046 4.36112 10.7206 4.5658 10.7216 4.78681C10.7216 4.79295 10.7216 4.79908 10.7215 4.80522C10.701 6.29396 9.52516 7.55731 8.00063 7.55714C7.99707 7.55714 7.9935 7.55712 7.98993 7.55708C7.51937 7.552 7.06093 7.41848 6.66058 7.1733C6.34016 6.98544 5.91454 7.08403 5.70568 7.46139C5.70191 7.4682 5.69806 7.47496 5.69414 7.48168L5.10008 8.49826C4.88517 8.89686 5.03102 9.3851 5.37251 9.59262C6.21562 10.1003 6.71589 11.0227 6.71589 12C6.71589 12.9777 6.21517 13.9005 5.37136 14.4081C5.37131 14.4081 5.3714 14.408 5.37136 14.4081C5.03003 14.6137 4.8844 15.1032 5.10386 15.5001C5.10371 15.4998 5.10401 15.5004 5.10386 15.5001L5.67144 16.5191C5.67452 16.5246 5.67754 16.5302 5.68052 16.5358C5.78044 16.7235 5.94104 16.8498 6.11623 16.9016C6.28829 16.9525 6.47344 16.9319 6.63524 16.8393C7.25998 16.4635 8.00843 16.3591 8.71237 16.5552C9.41628 16.7513 10.0038 17.2273 10.3554 17.863C10.5862 18.2704 10.7086 18.7309 10.7133 19.1986C10.7133 19.2002 10.7133 19.2018 10.7133 19.2035C10.7134 19.2052 10.7134 19.2069 10.7134 19.2086C10.7134 19.6839 11.0736 20 11.4342 20H12.5623C12.9209 20 13.2792 19.6876 13.2831 19.2159C13.2812 18.488 13.5577 17.7817 14.0635 17.2551C14.572 16.7257 15.2716 16.422 16.009 16.4257C16.0166 16.4258 16.0242 16.4259 16.0318 16.4261C16.4934 16.439 16.9424 16.5706 17.3387 16.8063C17.3397 16.8069 17.3407 16.8075 17.3417 16.8082C17.662 17.0003 18.0901 16.9039 18.301 16.5265C18.3031 16.5226 18.3053 16.5188 18.3075 16.5149L18.8966 15.4929C18.9977 15.3096 19.0269 15.0871 18.973 14.877C18.919 14.6658 18.7894 14.4979 18.6272 14.4008C17.9991 14.0246 17.5523 13.4109 17.3715 12.705C17.1912 12.0009 17.2864 11.2499 17.6409 10.6147C17.8729 10.1943 18.2106 9.84033 18.6236 9.5928C18.9643 9.38329 19.1084 8.89357 18.8899 8.495C18.8759 8.4695 18.8631 8.44346 18.8514 8.41695L18.332 7.4786C18.1229 7.10085 17.6966 7.00239 17.3761 7.191C16.7532 7.57043 16.0053 7.67988 15.2996 7.48915C14.5934 7.29825 14.0013 6.8266 13.6436 6.19301C13.4112 5.78444 13.2878 5.32231 13.2831 4.85283C13.283 4.84031 13.2831 4.82779 13.2835 4.81528C13.2897 4.58846 13.2069 4.37614 13.066 4.22525Z" fill="#666666"/>
</svg>
