<svg width="24" height="24" viewBox="0 0 24 24" fill="none" xmlns="http://www.w3.org/2000/svg">
<path d="M13.7455 13.9998H10.2545C9.83778 13.9998 9.5 14.3376 9.5 14.7542V19.9C9.5 19.9552 9.45523 20 9.4 20L4.75446 19.9998C4.33778 19.9998 4 19.662 4 19.2453V9.36648C4 9.13497 4.10629 8.91627 4.28834 8.77324L11 3.49979C11.5624 3.01903 12.4389 3.01757 13 3.49979L19.7117 8.77324C19.8937 8.91627 20 9.13497 20 9.36648V19.2453C20 19.662 19.6622 19.9998 19.2455 19.9998H14.6C14.5448 19.9998 14.5 19.955 14.5 19.8998V14.7543C14.5 14.3376 14.1622 13.9998 13.7455 13.9998Z" fill="#FF7B00" stroke="#FF7B00" stroke-width="2" stroke-linecap="round"/>
</svg>
