<svg width="24" height="24" viewBox="0 0 24 24" fill="none" xmlns="http://www.w3.org/2000/svg">
<path d="M17 4H7C5.89543 4 5 4.89543 5 6V18C5 19.1046 5.89543 20 7 20H13.1716C13.702 20 14.2107 19.7893 14.5858 19.4142L18.4142 15.5858C18.7893 15.2107 19 14.702 19 14.1716V6C19 4.89543 18.1046 4 17 4Z" fill="#FF7B00"/>
<path fill-rule="evenodd" clip-rule="evenodd" d="M4 6C4 4.34315 5.34315 3 7 3H17C18.6569 3 20 4.34315 20 6V14.1716C20 14.9672 19.6839 15.7303 19.1213 16.2929L15.2929 20.1213C14.7303 20.6839 13.9672 21 13.1716 21H7C5.34315 21 4 19.6569 4 18V6ZM7 5C6.44772 5 6 5.44772 6 6V18C6 18.5523 6.44772 19 7 19H13.1716C13.4368 19 13.6911 18.8946 13.8787 18.7071L17.7071 14.8787C17.8946 14.6911 18 14.4368 18 14.1716V6C18 5.44772 17.5523 5 17 5H7Z" fill="#FF7B00"/>
<path fill-rule="evenodd" clip-rule="evenodd" d="M8 8C8 7.44772 8.44772 7 9 7L15 7C15.5523 7 16 7.44772 16 8C16 8.55229 15.5523 9 15 9L9 9C8.44772 9 8 8.55228 8 8Z" fill="white"/>
<path fill-rule="evenodd" clip-rule="evenodd" d="M8 12C8 11.4477 8.44772 11 9 11L15 11C15.5523 11 16 11.4477 16 12C16 12.5523 15.5523 13 15 13L9 13C8.44772 13 8 12.5523 8 12Z" fill="white"/>
<path fill-rule="evenodd" clip-rule="evenodd" d="M8 16C8 15.4477 8.44772 15 9 15H12C12.5523 15 13 15.4477 13 16C13 16.5523 12.5523 17 12 17H9C8.44772 17 8 16.5523 8 16Z" fill="white"/>
</svg>
