<svg width="24" height="24" viewBox="0 0 24 24" fill="none" xmlns="http://www.w3.org/2000/svg">
<path d="M3 16.9737V18C3 19.1046 3.89543 20 5 20H15C16.1046 20 17 19.1046 17 18V16.9737C17 16.3288 16.9027 15.6698 16.483 15.1802C15.7216 14.2919 13.9374 13 10 13C6.06257 13 4.27839 14.2919 3.51701 15.1802C3.09731 15.6698 3 16.3288 3 16.9737Z" fill="#FF7B00" stroke="#FF7B00" stroke-width="2"/>
<circle cx="10" cy="7" r="4" fill="#FF7B00"/>
<path d="M14.7595 3.06284C14.4821 3.01556 14.3342 3.34602 14.5155 3.56117C15.317 4.5124 16 5.73632 16 7C16 8.26368 15.317 9.4876 14.5155 10.4388C14.3342 10.654 14.4821 10.9844 14.7595 10.9372C16.8007 10.5892 18 8.84721 18 7C18 5.15279 16.8007 3.41083 14.7595 3.06284Z" fill="#FF7B00"/>
<path d="M18.316 13.0098C18.1419 12.9989 18.0251 13.144 18.1402 13.2751C18.5495 13.7413 19.7143 14.461 19.7142 16.624V18.8571C19.7142 19.4883 20.2259 20 20.8571 20C21.4883 20 22 19.4883 22 18.8571V16.624C22 14.6076 20.4419 13.1421 18.316 13.0098Z" fill="#FF7B00"/>
</svg>
