<svg width="24" height="24" viewBox="0 0 24 24" fill="none" xmlns="http://www.w3.org/2000/svg">
<path fill-rule="evenodd" clip-rule="evenodd" d="M7.33333 2.00037C5.64256 2.00037 4 3.20445 4 5.00037V19.0004C4 20.244 5.12022 21.0004 6.16667 21.0004H8.64667C9.21004 21.0004 9.66667 20.5437 9.66667 19.9804V18.2004C9.66667 18.0899 9.75621 18.0004 9.86667 18.0004H14.1333C14.2438 18.0004 14.3333 18.0899 14.3333 18.2004V19.9804C14.3333 20.5437 14.79 21.0004 15.3533 21.0004H17.8333C18.8798 21.0004 20 20.244 20 19.0004V5.00037C20 3.20445 18.3574 2.00037 16.6667 2.00037H7.33333ZM10.5 9.00037C10.7761 9.00037 11 8.77651 11 8.50037V6.50037C11 6.22422 10.7761 6.00037 10.5 6.00037H8.5C8.22386 6.00037 8 6.22422 8 6.50037V8.50037C8 8.77651 8.22386 9.00037 8.5 9.00037H10.5ZM16 8.50037C16 8.77651 15.7761 9.00037 15.5 9.00037H13.5C13.2239 9.00037 13 8.77651 13 8.50037V6.50037C13 6.22422 13.2239 6.00037 13.5 6.00037H15.5C15.7761 6.00037 16 6.22422 16 6.50037V8.50037ZM11 13.5004C11 13.7765 10.7761 14.0004 10.5 14.0004H8.5C8.22386 14.0004 8 13.7765 8 13.5004V11.5004C8 11.2242 8.22386 11.0004 8.5 11.0004H10.5C10.7761 11.0004 11 11.2242 11 11.5004V13.5004ZM16 13.5004C16 13.7765 15.7761 14.0004 15.5 14.0004H13.5C13.2239 14.0004 13 13.7765 13 13.5004V11.5004C13 11.2242 13.2239 11.0004 13.5 11.0004H15.5C15.7761 11.0004 16 11.2242 16 11.5004V13.5004Z" fill="#FF7B00"/>
</svg>
