<svg width="24" height="24" viewBox="0 0 24 24" fill="none" xmlns="http://www.w3.org/2000/svg">
<path fill-rule="evenodd" clip-rule="evenodd" d="M4 5.00037C4 3.20445 5.64256 2.00037 7.33333 2.00037H16.6667C18.3574 2.00037 20 3.20445 20 5.00037V19.0004C20 20.244 18.8798 21.0004 17.8333 21.0004H14.3533C13.79 21.0004 13.3333 20.5437 13.3333 19.9804V18.2004C13.3333 18.0899 13.2438 18.0004 13.1333 18.0004H10.8667C10.7562 18.0004 10.6667 18.0899 10.6667 18.2004V19.9804C10.6667 20.5437 10.21 21.0004 9.64667 21.0004H6.16667C5.12022 21.0004 4 20.244 4 19.0004V5.00037ZM7.33333 4.00037C6.44678 4.00037 6 4.58715 6 5.00037V18.9541C6.02684 18.9737 6.0827 19.0004 6.16667 19.0004H8.66667V17.0004C8.66667 16.4481 9.11438 16.0004 9.66667 16.0004H14.3333C14.8856 16.0004 15.3333 16.4481 15.3333 17.0004V19.0004H17.8333C17.9173 19.0004 17.9732 18.9737 18 18.9541V5.00037C18 4.58715 17.5532 4.00037 16.6667 4.00037H7.33333Z" fill="#666666"/>
<path fill-rule="evenodd" clip-rule="evenodd" d="M11 8.50037C11 8.77651 10.7761 9.00037 10.5 9.00037H8.5C8.22386 9.00037 8 8.77651 8 8.50037V6.50037C8 6.22422 8.22386 6.00037 8.5 6.00037H10.5C10.7761 6.00037 11 6.22422 11 6.50037V8.50037Z" fill="#666666"/>
<path fill-rule="evenodd" clip-rule="evenodd" d="M10 8.00037H9V7.00037H10V8.00037ZM10.5 9.00037C10.7761 9.00037 11 8.77651 11 8.50037V6.50037C11 6.22422 10.7761 6.00037 10.5 6.00037H8.5C8.22386 6.00037 8 6.22422 8 6.50037V8.50037C8 8.77651 8.22386 9.00037 8.5 9.00037H10.5Z" fill="#666666"/>
<path fill-rule="evenodd" clip-rule="evenodd" d="M16 8.50037C16 8.77651 15.7761 9.00037 15.5 9.00037H13.5C13.2239 9.00037 13 8.77651 13 8.50037V6.50037C13 6.22422 13.2239 6.00037 13.5 6.00037H15.5C15.7761 6.00037 16 6.22422 16 6.50037V8.50037Z" fill="#666666"/>
<path fill-rule="evenodd" clip-rule="evenodd" d="M15 8.00037H14V7.00037H15V8.00037ZM15.5 9.00037C15.7761 9.00037 16 8.77651 16 8.50037V6.50037C16 6.22422 15.7761 6.00037 15.5 6.00037H13.5C13.2239 6.00037 13 6.22422 13 6.50037V8.50037C13 8.77651 13.2239 9.00037 13.5 9.00037H15.5Z" fill="#666666"/>
<path fill-rule="evenodd" clip-rule="evenodd" d="M11 13.5004C11 13.7765 10.7761 14.0004 10.5 14.0004H8.5C8.22386 14.0004 8 13.7765 8 13.5004V11.5004C8 11.2242 8.22386 11.0004 8.5 11.0004H10.5C10.7761 11.0004 11 11.2242 11 11.5004V13.5004Z" fill="#666666"/>
<path fill-rule="evenodd" clip-rule="evenodd" d="M10 13.0004H9V12.0004H10V13.0004ZM10.5 14.0004C10.7761 14.0004 11 13.7765 11 13.5004V11.5004C11 11.2242 10.7761 11.0004 10.5 11.0004H8.5C8.22386 11.0004 8 11.2242 8 11.5004V13.5004C8 13.7765 8.22386 14.0004 8.5 14.0004H10.5Z" fill="#666666"/>
<path fill-rule="evenodd" clip-rule="evenodd" d="M16 13.5004C16 13.7765 15.7761 14.0004 15.5 14.0004H13.5C13.2239 14.0004 13 13.7765 13 13.5004V11.5004C13 11.2242 13.2239 11.0004 13.5 11.0004H15.5C15.7761 11.0004 16 11.2242 16 11.5004V13.5004Z" fill="#666666"/>
<path fill-rule="evenodd" clip-rule="evenodd" d="M15 13.0004H14V12.0004H15V13.0004ZM15.5 14.0004C15.7761 14.0004 16 13.7765 16 13.5004V11.5004C16 11.2242 15.7761 11.0004 15.5 11.0004H13.5C13.2239 11.0004 13 11.2242 13 11.5004V13.5004C13 13.7765 13.2239 14.0004 13.5 14.0004H15.5Z" fill="#666666"/>
</svg>
