<svg width="24" height="24" viewBox="0 0 24 24" fill="none" xmlns="http://www.w3.org/2000/svg">
<path d="M10 11C12.21 11 14 9.21 14 7C14 4.79 12.21 3 10 3C7.79 3 6 4.79 6 7C6 9.21 7.79 11 10 11ZM10 5C11.1 5 12 5.9 12 7C12 8.1 11.1 9 10 9C8.9 9 8 8.1 8 7C8 5.9 8.9 5 10 5Z" fill="#666666"/>
<path d="M14.7595 3.06284C14.4821 3.01556 14.3342 3.34602 14.5155 3.56117C15.317 4.5124 16 5.73632 16 7C16 8.26368 15.317 9.4876 14.5155 10.4388C14.3342 10.654 14.4821 10.9844 14.7595 10.9372C16.8007 10.5892 18 8.84721 18 7C18 5.15279 16.8007 3.41083 14.7595 3.06284Z" fill="#666666"/>
<path d="M18.3157 13.0128C18.1419 12.9986 18.021 13.1445 18.1281 13.2821C18.491 13.7485 19.5 14.4719 19.4999 16.624V19C19.4999 19.5523 19.9477 20 20.5 20Lnan nanL20.5 20C21.0523 20 21.5 19.5523 21.5 19V16.624C21.5 14.6218 20.1558 13.1628 18.3157 13.0128Z" fill="#666666"/>
<path fill-rule="evenodd" clip-rule="evenodd" d="M10 14C6.30361 14 4.81686 15.2003 4.27626 15.831C4.09764 16.0394 4 16.3903 4 16.9737V18C4 18.5523 4.44772 19 5 19H15C15.5523 19 16 18.5523 16 18V16.9737C16 16.3903 15.9024 16.0394 15.7237 15.831C15.1831 15.2003 13.6964 14 10 14ZM2.75776 14.5294C3.73991 13.3836 5.82153 12 10 12C14.1785 12 16.2601 13.3836 17.2422 14.5294C17.903 15.3003 18 16.2673 18 16.9737V18C18 19.6569 16.6569 21 15 21H5C3.34315 21 2 19.6569 2 18V16.9737C2 16.2673 2.09698 15.3003 2.75776 14.5294Z" fill="#666666"/>
</svg>
